<svg width="24" height="25" viewBox="0 0 24 25" fill="none" xmlns="http://www.w3.org/2000/svg">
<circle cx="12" cy="12.5" r="12" fill="black"/>
<path d="M7.87223 11.4601C7.87146 10.9384 7.97857 10.4218 8.1874 9.93995C8.39623 9.45809 8.70264 9.02052 9.08899 8.65244C9.47533 8.28436 9.93398 7.99304 10.4385 7.79526C10.9431 7.59749 11.4835 7.49716 12.0287 7.50006C14.3053 7.51656 16.1278 9.32606 16.1278 11.5096V11.9001C16.1278 13.8691 16.5589 15.0131 16.9384 15.6401C16.9787 15.7068 16.9999 15.7826 17 15.8597C17.0001 15.9368 16.979 16.0125 16.9388 16.0794C16.8986 16.1462 16.8408 16.2018 16.7711 16.2405C16.7014 16.2793 16.6223 16.2998 16.5417 16.3001H7.4583C7.3777 16.2998 7.2986 16.2793 7.22891 16.2405C7.15922 16.2018 7.10139 16.1462 7.06121 16.0794C7.02104 16.0125 6.99993 15.9368 7 15.8597C7.00007 15.7826 7.02132 15.7068 7.06162 15.6401C7.44105 15.0131 7.87223 13.8691 7.87223 11.9001V11.4601Z" fill="white"/>
<path d="M10.1601 16.3V16.74C10.1601 17.2068 10.354 17.6544 10.699 17.9845C11.044 18.3146 11.5119 18.5 11.9998 18.5C12.4877 18.5 12.9557 18.3146 13.3007 17.9845C13.6457 17.6544 13.8395 17.2068 13.8395 16.74V16.3" fill="white"/>
</svg>
