<svg width="87" height="12" viewBox="0 0 87 12" fill="none" xmlns="http://www.w3.org/2000/svg">
<path d="M5.9875 10.975C5.37083 10.975 4.78958 10.8583 4.24375 10.625C3.69792 10.3917 3.22292 10.0729 2.81875 9.66876C2.41458 9.26459 2.09375 8.78959 1.85625 8.24376C1.61875 7.69792 1.5 7.11362 1.5 6.49084C1.5 5.86807 1.61875 5.28474 1.85625 4.74084C2.09375 4.19695 2.41458 3.72084 2.81875 3.31251C3.22292 2.90417 3.69792 2.58334 4.24375 2.35001C4.78958 2.11667 5.37083 2.00001 5.9875 2.00001C6.60417 2.00001 7.18542 2.11667 7.73125 2.35001C8.27708 2.58334 8.75417 2.90417 9.1625 3.31251C9.57083 3.72084 9.89167 4.19695 10.125 4.74084C10.3583 5.28474 10.475 5.86807 10.475 6.49084C10.475 7.11362 10.3583 7.69792 10.125 8.24376C9.89167 8.78959 9.57083 9.26459 9.1625 9.66876C8.75417 10.0729 8.27708 10.3917 7.73125 10.625C7.18542 10.8583 6.60417 10.975 5.9875 10.975ZM7.5 8.52501L8.025 8.00001L6.4 6.37501V4.00001H5.65V6.67501L7.5 8.52501ZM2.675 1.16251L3.2 1.68751L1.15 3.66251L0.625 3.13751L2.675 1.16251ZM9.3 1.16251L11.35 3.13751L10.825 3.66251L8.775 1.68751L9.3 1.16251ZM5.98804 10.225C7.02935 10.225 7.9125 9.86233 8.6375 9.13697C9.3625 8.41161 9.725 7.52828 9.725 6.48697C9.725 5.44566 9.36232 4.56251 8.63696 3.83751C7.9116 3.11251 7.02827 2.75001 5.98696 2.75001C4.94565 2.75001 4.0625 3.11269 3.3375 3.83804C2.6125 4.5634 2.25 5.44674 2.25 6.48804C2.25 7.52935 2.61268 8.41251 3.33804 9.13751C4.0634 9.86251 4.94673 10.225 5.98804 10.225Z" fill="white"/>
<g clip-path="url(#clip0_101_876)">
<path d="M22 10.5L16 4.5C16.825 3.71667 17.7458 3.10417 18.7625 2.6625C19.7792 2.22083 20.8583 2 22 2C23.1417 2 24.2208 2.22083 25.2375 2.6625C26.2542 3.10417 27.175 3.71667 28 4.5L22 10.5Z" fill="white"/>
</g>
<path d="M33.375 5.75L42.5417 0.75V5.75H33.375ZM37.099 5.375H41.8542V1.65L37.099 4.24375V5.375Z" fill="white"/>
<g clip-path="url(#clip1_101_876)">
<path d="M32.9052 11.5L42.0719 6.5V11.5H32.9052ZM34.5552 11.125H41.3844V7.4L34.5552 11.125Z" fill="white"/>
</g>
<path d="M51 11C50.8583 11 50.7396 10.9521 50.6438 10.8563C50.5479 10.7604 50.5 10.6417 50.5 10.5V2.5C50.5 2.35833 50.5479 2.23958 50.6438 2.14375C50.7396 2.04792 50.8583 2 51 2H52V1H54V2H55C55.1417 2 55.2604 2.04792 55.3563 2.14375C55.4521 2.23958 55.5 2.35833 55.5 2.5V10.5C55.5 10.6417 55.4521 10.7604 55.3563 10.8563C55.2604 10.9521 55.1417 11 55 11H51Z" fill="white"/>
<path d="M62.6782 2.41V10H61.7102V3.983C61.7102 3.873 61.7139 3.763 61.7212 3.653C61.7286 3.543 61.7432 3.433 61.7652 3.323L59.9062 3.906L59.7742 3.191L61.7102 2.41H62.6782ZM67.226 2.267C67.8787 2.267 68.3957 2.40267 68.777 2.674C69.1584 2.94533 69.4297 3.37067 69.591 3.95C69.7597 4.52933 69.844 5.281 69.844 6.205C69.844 7.129 69.7597 7.88067 69.591 8.46C69.4297 9.03933 69.1584 9.46467 68.777 9.736C68.3957 10.0073 67.8787 10.143 67.226 10.143C66.5807 10.143 66.0674 10.0073 65.686 9.736C65.3047 9.46467 65.0297 9.03933 64.861 8.46C64.6997 7.88067 64.619 7.129 64.619 6.205C64.619 5.281 64.6997 4.52933 64.861 3.95C65.0297 3.37067 65.3047 2.94533 65.686 2.674C66.0674 2.40267 66.5807 2.267 67.226 2.267ZM67.226 3.114C66.9107 3.114 66.6467 3.17267 66.434 3.29C66.2214 3.4 66.049 3.576 65.917 3.818C65.7924 4.06 65.7007 4.379 65.642 4.775C65.5907 5.16367 65.565 5.64033 65.565 6.205C65.565 6.76233 65.5907 7.239 65.642 7.635C65.7007 8.031 65.7924 8.35 65.917 8.592C66.049 8.834 66.2214 9.01367 66.434 9.131C66.6467 9.241 66.9107 9.296 67.226 9.296C67.5414 9.296 67.8054 9.241 68.018 9.131C68.238 9.01367 68.4104 8.834 68.535 8.592C68.667 8.35 68.7587 8.031 68.81 7.635C68.8687 7.239 68.898 6.76233 68.898 6.205C68.898 5.64033 68.8687 5.16367 68.81 4.775C68.7587 4.379 68.667 4.06 68.535 3.818C68.4104 3.576 68.238 3.4 68.018 3.29C67.8054 3.17267 67.5414 3.114 67.226 3.114ZM73.854 2.267C74.5066 2.267 75.0236 2.40267 75.405 2.674C75.7863 2.94533 76.0576 3.37067 76.219 3.95C76.3876 4.52933 76.472 5.281 76.472 6.205C76.472 7.129 76.3876 7.88067 76.219 8.46C76.0576 9.03933 75.7863 9.46467 75.405 9.736C75.0236 10.0073 74.5066 10.143 73.854 10.143C73.2086 10.143 72.6953 10.0073 72.314 9.736C71.9326 9.46467 71.6576 9.03933 71.489 8.46C71.3276 7.88067 71.247 7.129 71.247 6.205C71.247 5.281 71.3276 4.52933 71.489 3.95C71.6576 3.37067 71.9326 2.94533 72.314 2.674C72.6953 2.40267 73.2086 2.267 73.854 2.267ZM73.854 3.114C73.5386 3.114 73.2746 3.17267 73.062 3.29C72.8493 3.4 72.677 3.576 72.545 3.818C72.4203 4.06 72.3286 4.379 72.27 4.775C72.2186 5.16367 72.193 5.64033 72.193 6.205C72.193 6.76233 72.2186 7.239 72.27 7.635C72.3286 8.031 72.4203 8.35 72.545 8.592C72.677 8.834 72.8493 9.01367 73.062 9.131C73.2746 9.241 73.5386 9.296 73.854 9.296C74.1693 9.296 74.4333 9.241 74.646 9.131C74.866 9.01367 75.0383 8.834 75.163 8.592C75.295 8.35 75.3866 8.031 75.438 7.635C75.4966 7.239 75.526 6.76233 75.526 6.205C75.526 5.64033 75.4966 5.16367 75.438 4.775C75.3866 4.379 75.295 4.06 75.163 3.818C75.0383 3.576 74.866 3.4 74.646 3.29C74.4333 3.17267 74.1693 3.114 73.854 3.114ZM79.4479 2.267C79.8879 2.267 80.2362 2.344 80.4929 2.498C80.7569 2.64467 80.9439 2.883 81.0539 3.213C81.1639 3.543 81.2189 3.97933 81.2189 4.522C81.2189 5.05733 81.1639 5.49 81.0539 5.82C80.9439 6.15 80.7569 6.392 80.4929 6.546C80.2362 6.7 79.8879 6.777 79.4479 6.777C79.0152 6.777 78.6669 6.7 78.4029 6.546C78.1462 6.392 77.9629 6.15 77.8529 5.82C77.7429 5.49 77.6879 5.05733 77.6879 4.522C77.6879 3.97933 77.7429 3.543 77.8529 3.213C77.9629 2.883 78.1462 2.64467 78.4029 2.498C78.6669 2.344 79.0152 2.267 79.4479 2.267ZM79.4479 2.861C79.1839 2.861 78.9749 2.916 78.8209 3.026C78.6742 3.12867 78.5679 3.301 78.5019 3.543C78.4359 3.785 78.4029 4.11133 78.4029 4.522C78.4029 4.93267 78.4359 5.259 78.5019 5.501C78.5679 5.743 78.6742 5.919 78.8209 6.029C78.9749 6.13167 79.1839 6.183 79.4479 6.183C79.7192 6.183 79.9282 6.13167 80.0749 6.029C80.2289 5.919 80.3352 5.743 80.3939 5.501C80.4599 5.259 80.4929 4.93267 80.4929 4.522C80.4929 4.11133 80.4599 3.785 80.3939 3.543C80.3352 3.301 80.2289 3.12867 80.0749 3.026C79.9282 2.916 79.7192 2.861 79.4479 2.861ZM84.8599 2.41L79.9429 10H79.2829L84.1999 2.41H84.8599ZM84.7169 5.6C85.1569 5.6 85.5052 5.677 85.7619 5.831C86.0186 5.985 86.2019 6.227 86.3119 6.557C86.4219 6.87967 86.4769 7.30867 86.4769 7.844C86.4769 8.37933 86.4219 8.81567 86.3119 9.153C86.2019 9.483 86.0186 9.725 85.7619 9.879C85.5052 10.0257 85.1569 10.099 84.7169 10.099C84.2842 10.099 83.9359 10.0257 83.6719 9.879C83.4152 9.725 83.2319 9.483 83.1219 9.153C83.0119 8.81567 82.9569 8.37933 82.9569 7.844C82.9569 7.30867 83.0119 6.87967 83.1219 6.557C83.2319 6.227 83.4152 5.985 83.6719 5.831C83.9359 5.677 84.2842 5.6 84.7169 5.6ZM84.7059 6.194C84.4419 6.194 84.2329 6.24533 84.0789 6.348C83.9249 6.45067 83.8186 6.623 83.7599 6.865C83.7012 7.107 83.6719 7.43333 83.6719 7.844C83.6719 8.25467 83.7012 8.58467 83.7599 8.834C83.8186 9.076 83.9249 9.252 84.0789 9.362C84.2329 9.46467 84.4419 9.516 84.7059 9.516C84.9772 9.516 85.1862 9.46467 85.3329 9.362C85.4869 9.252 85.5969 9.076 85.6629 8.834C85.7289 8.58467 85.7619 8.25467 85.7619 7.844C85.7619 7.43333 85.7289 7.107 85.6629 6.865C85.5969 6.623 85.4869 6.45067 85.3329 6.348C85.1862 6.24533 84.9772 6.194 84.7059 6.194Z" fill="white"/>
<defs>
<clipPath id="clip0_101_876">
<rect width="12" height="12" fill="white" transform="translate(16)"/>
</clipPath>
<clipPath id="clip1_101_876">
<rect width="11" height="6" fill="white" transform="translate(32 6)"/>
</clipPath>
</defs>
</svg>
