<svg width="68" height="28" viewBox="0 0 68 28" fill="none" xmlns="http://www.w3.org/2000/svg">
<g clip-path="url(#clip0_1_607)">
<path d="M67.9881 28L61.573 0H57.5759L61.721 17.4553H55.5895L54.6641 21.3357H62.634L64.2129 27.9754L67.9881 28Z" fill="#ff0000"/>
<path d="M53.5667 0L48.9649 19.4017L44.0056 0L40.2305 0.0369541L35.6412 19.3894L30.6695 0L26.8944 0.0369541L22.3051 19.4017L17.3456 0L13.5705 0.0246348L8.98123 19.4017L4.00948 0H0L7.16773 28L10.9428 27.963L15.5321 8.59834L20.4915 28L24.2666 27.9754V27.963L28.8683 8.59834L33.8277 28L37.6028 27.9754V27.963L42.1921 8.59834L47.1517 28L50.9265 27.9754L52.5057 21.3357H52.5182L52.8633 19.8328L57.5639 0H53.5667Z" fill="white"/>
</g>
<defs>
<clipPath id="clip0_1_607">
<rect width="68" height="28" fill="white"/>
</clipPath>
</defs>
</svg>
