<svg width="40" height="41" viewBox="0 0 40 41" fill="none" xmlns="http://www.w3.org/2000/svg">
<rect y="0.5" width="40" height="40" rx="4" fill="#745F27"/>
<path d="M20 28.1923C23.1155 28.1923 25.6411 25.6668 25.6411 22.5513C25.6411 19.4359 23.1155 16.9103 20 16.9103C16.8846 16.9103 14.359 19.4359 14.359 22.5513C14.359 25.6668 16.8846 28.1923 20 28.1923Z" stroke="#F0B11C" stroke-width="1.5" stroke-linecap="round" stroke-linejoin="round"/>
<path d="M29.7435 18.9616C30.9381 18.9596 32.1166 19.2367 33.185 19.7709C34.2534 20.3052 35.1822 21.0816 35.8974 22.0385" stroke="#F0B11C" stroke-width="1.5" stroke-linecap="round" stroke-linejoin="round"/>
<path d="M4.10254 22.0385C4.81767 21.0816 5.74649 20.3052 6.81492 19.7709C7.88336 19.2367 9.06184 18.9596 10.2564 18.9616" stroke="#F0B11C" stroke-width="1.5" stroke-linecap="round" stroke-linejoin="round"/>
<path d="M12.3077 32.2949C13.0113 31.0645 14.1054 30.0276 15.4654 29.3022C16.8254 28.5769 18.3966 28.1923 20 28.1923C21.6035 28.1923 23.1747 28.5769 24.5347 29.3022C25.8947 30.0276 26.9888 31.0645 27.6924 32.2949" stroke="#F0B11C" stroke-width="1.5" stroke-linecap="round" stroke-linejoin="round"/>
<path d="M10.8152 18.9615C9.93138 18.9624 9.06554 18.714 8.31887 18.2453C7.57219 17.7766 6.97552 17.1069 6.59857 16.3146C6.22162 15.5223 6.07996 14.64 6.19014 13.7708C6.30031 12.9016 6.65778 12.0815 7.22077 11.4062C7.78376 10.7309 8.52902 10.2284 9.36947 9.95732C10.2099 9.68624 11.1109 9.65782 11.967 9.87538C12.8231 10.0929 13.5991 10.5475 14.2043 11.1859C14.8095 11.8244 15.2189 12.6203 15.3846 13.4808" stroke="#F0B11C" stroke-width="1.5" stroke-linecap="round" stroke-linejoin="round"/>
<path d="M24.6154 13.4808C24.7811 12.6203 25.1904 11.8244 25.7956 11.1859C26.4008 10.5475 27.1768 10.0929 28.0329 9.87538C28.8891 9.65782 29.79 9.68624 30.6305 9.95732C31.4709 10.2284 32.2162 10.7309 32.7792 11.4062C33.3422 12.0815 33.6996 12.9016 33.8098 13.7708C33.92 14.64 33.7783 15.5223 33.4014 16.3146C33.0244 17.1069 32.4277 17.7766 31.6811 18.2453C30.9344 18.714 30.0686 18.9624 29.1847 18.9615" stroke="#F0B11C" stroke-width="1.5" stroke-linecap="round" stroke-linejoin="round"/>
</svg>
