<svg width="12" height="12" viewBox="0 0 12 12" fill="none" xmlns="http://www.w3.org/2000/svg">
<path d="M9.50223 2.45313C8.56696 1.51562 7.32143 1 5.99777 1C3.26562 1 1.04241 3.22321 1.04241 5.95536C1.04241 6.82813 1.27009 7.6808 1.70313 8.43304L1 11L3.62723 10.3103C4.35045 10.7054 5.16518 10.9129 5.99554 10.9129H5.99777C8.72768 10.9129 11 8.68973 11 5.95759C11 4.63393 10.4375 3.39063 9.50223 2.45313ZM5.99777 10.0781C5.2567 10.0781 4.53125 9.87946 3.89955 9.50446L3.75 9.41518L2.19196 9.82366L2.60714 8.30357L2.50893 8.14732C2.09598 7.49107 1.87946 6.73438 1.87946 5.95536C1.87946 3.68527 3.72768 1.83705 6 1.83705C7.10045 1.83705 8.13393 2.26562 8.91071 3.04464C9.6875 3.82366 10.1652 4.85714 10.1629 5.95759C10.1629 8.22991 8.26786 10.0781 5.99777 10.0781ZM8.2567 6.9933C8.13393 6.9308 7.52455 6.6317 7.41071 6.59152C7.29688 6.54911 7.21429 6.52902 7.1317 6.65402C7.04911 6.77902 6.8125 7.0558 6.73884 7.14063C6.66741 7.22321 6.59375 7.23438 6.47098 7.17188C5.7433 6.80804 5.26563 6.52232 4.78571 5.69866C4.65848 5.47991 4.91295 5.49554 5.14955 5.02232C5.18973 4.93973 5.16964 4.8683 5.13839 4.8058C5.10714 4.7433 4.85938 4.13393 4.7567 3.88616C4.65625 3.64509 4.55357 3.67857 4.47768 3.67411C4.40625 3.66964 4.32366 3.66964 4.24107 3.66964C4.15848 3.66964 4.02455 3.70089 3.91071 3.82366C3.79687 3.94866 3.47768 4.24777 3.47768 4.85714C3.47768 5.46652 3.92188 6.0558 3.98214 6.13839C4.04464 6.22098 4.85491 7.47098 6.09821 8.00893C6.88393 8.34821 7.19196 8.37723 7.58482 8.3192C7.82366 8.28348 8.31696 8.02009 8.41964 7.72991C8.52232 7.43973 8.52232 7.19196 8.49107 7.14063C8.46205 7.08482 8.37946 7.05357 8.2567 6.9933Z" fill="white"/>
</svg>
